<?xml version="1.0" standalone="no"?><!DOCTYPE svg PUBLIC "-//W3C//DTD SVG 1.1//EN" "http://www.w3.org/Graphics/SVG/1.1/DTD/svg11.dtd"><svg width="64" height="64" viewBox="0 0 64 64" version="1.1" xmlns="http://www.w3.org/2000/svg" xmlns:xlink="http://www.w3.org/1999/xlink"><defs><style type="text/css"><![CDATA[
@font-face { font-family: ifont; src: url(http://at.alicdn.com/t/font_1442373896_4754455.eot?#iefix) format(embedded-opentype), url(http://at.alicdn.com/t/font_1442373896_4754455.woff) format(woff), url(http://at.alicdn.com/t/font_1442373896_4754455.ttf) format(truetype), url(http://at.alicdn.com/t/font_1442373896_4754455.svg#ifont) format(svg); }

]]></style></defs><g class="transform-group"><g transform="scale(0.0625, 0.0625)"><path d="M522.74688 99.854336c-229.79072 0-416.768 186.943488-416.768 416.748544 0 229.812224 186.976256 416.753664 416.768 416.753664s416.768-186.942464 416.768-416.753664C939.51488 286.797824 752.538624 99.854336 522.74688 99.854336zM522.74688 888.64768c-205.14304 0-372.028416-166.90176-372.028416-372.0448 0-205.138944 166.885376-372.02432 372.028416-372.02432s372.02944 166.8864 372.02944 372.02432C894.77632 721.74592 727.88992 888.64768 522.74688 888.64768zM623.566848 298.60864l-66.18112 121.950208c-17.664 33.040384-28.43136 55.021568-32.390144 65.902592l-1.14176 0c-11.63264-26.474496-44.476416-89.071616-98.551808-187.8528l-62.25408 0 115.759104 198.836224-94.908416 0 0 43.956224 111.248384 0 0 60.546048L383.899648 601.947136l0 44.476416 111.248384 0 0 88.178688 55.199744 0 0-88.178688 107.318272 0 0-44.476416L550.346752 601.947136l0-60.546048 107.318272 0 0-43.956224L565.56544 497.444864 682.447872 298.60864 623.566848 298.60864z" fill="#949494"></path></g></g></svg>