<?xml version="1.0" standalone="no"?><!DOCTYPE svg PUBLIC "-//W3C//DTD SVG 1.1//EN" "http://www.w3.org/Graphics/SVG/1.1/DTD/svg11.dtd"><svg width="64" height="64" viewBox="0 0 64 64" version="1.1" xmlns="http://www.w3.org/2000/svg" xmlns:xlink="http://www.w3.org/1999/xlink"><defs><style type="text/css"><![CDATA[
@font-face { font-family: ifont; src: url(http://at.alicdn.com/t/font_1442373896_4754455.eot?#iefix) format(embedded-opentype), url(http://at.alicdn.com/t/font_1442373896_4754455.woff) format(woff), url(http://at.alicdn.com/t/font_1442373896_4754455.ttf) format(truetype), url(http://at.alicdn.com/t/font_1442373896_4754455.svg#ifont) format(svg); }

]]></style></defs><g class="transform-group"><g transform="scale(0.0625, 0.0625)"><path d="M1007.072 542.48 512.016 79.152 16.96 541.12c-9.68 9.04-10.224 24.24-1.168 33.92 9.04 9.68 24.24 10.224 33.92 1.168l462.272-431.36 462.288 432.672c4.64 4.336 10.528 6.48 16.4 6.48 6.4 0 12.8-2.544 17.52-7.6C1017.248 566.72 1016.752 551.536 1007.072 542.48zM856 552c-13.248 0-24 10.752-24 24l0 368L640 944 640 688 384 688l0 256L192 944 192 576c0-13.248-10.736-24-24-24S144 562.752 144 576l0 416 288 0L432 736l160 0 0 256 288 0L880 576C880 562.752 869.248 552 856 552zM688 208l144 0 0 128c0 13.264 10.752 24 24 24S880 349.264 880 336L880 160 688 160c-13.248 0-24 10.736-24 24S674.752 208 688 208z" fill="#949494"></path></g></g></svg>