<?xml version="1.0" standalone="no"?><!DOCTYPE svg PUBLIC "-//W3C//DTD SVG 1.1//EN" "http://www.w3.org/Graphics/SVG/1.1/DTD/svg11.dtd"><svg width="64" height="64" viewBox="0 0 64 64" version="1.1" xmlns="http://www.w3.org/2000/svg" xmlns:xlink="http://www.w3.org/1999/xlink"><defs><style type="text/css"><![CDATA[
@font-face { font-family: ifont; src: url(http://at.alicdn.com/t/font_1442373896_4754455.eot?#iefix) format(embedded-opentype), url(http://at.alicdn.com/t/font_1442373896_4754455.woff) format(woff), url(http://at.alicdn.com/t/font_1442373896_4754455.ttf) format(truetype), url(http://at.alicdn.com/t/font_1442373896_4754455.svg#ifont) format(svg); }

]]></style></defs><g class="transform-group"><g transform="scale(0.0625, 0.0625)"><path d="M690.228 569.503c80.938-56.495 134.005-150.169 134.005-256.361 0-172.646-139.958-312.606-312.604-312.606s-312.602 139.96-312.602 312.606c0 106.065 52.947 199.632 133.722 256.149C150.589 640.684 21.39 817.606 21.39 1025.078c0 0.02 0.002 0.06 0.002 0.06l87.766 0c0-0.243-0.036-0.477-0.036-0.719 0-205.731 154.886-374.877 354.354-398.206 2.117-0.19 56.069-4.944 100.343 0.757 1.151 0.153 2.303 0.306 3.451 0.468 0.171 0.024 0.341 0.05 0.512 0.075 194.538 27.795 344.181 194.685 344.181 396.906 0 0.242-0.036 0.476-0.036 0.719l89.079-0.02c0 0 0.002-0.02 0.002-0.04C1001.009 817.822 872.086 641.042 690.228 569.503zM511.72 547.407c-129.337 0-234.18-104.844-234.18-234.178 0-129.332 104.844-234.176 234.18-234.176 129.33 0 234.176 104.844 234.176 234.176C745.896 442.563 641.05 547.407 511.72 547.407z" fill="#949494"></path></g></g></svg>