<?xml version="1.0" standalone="no"?><!DOCTYPE svg PUBLIC "-//W3C//DTD SVG 1.1//EN" "http://www.w3.org/Graphics/SVG/1.1/DTD/svg11.dtd"><svg width="200" height="200" viewBox="0 0 200 200" version="1.1" xmlns="http://www.w3.org/2000/svg" xmlns:xlink="http://www.w3.org/1999/xlink"><defs><style type="text/css"><![CDATA[
@font-face { font-family: ifont; src: url(http://at.alicdn.com/t/font_1442373896_4754455.eot?#iefix) format(embedded-opentype), url(http://at.alicdn.com/t/font_1442373896_4754455.woff) format(woff), url(http://at.alicdn.com/t/font_1442373896_4754455.ttf) format(truetype), url(http://at.alicdn.com/t/font_1442373896_4754455.svg#ifont) format(svg); }

]]></style></defs><g class="transform-group"><g transform="scale(0.1953125, 0.1953125)"><path d="M750.933 68.267h-136.533c-83.217 0-113.425 11.025-170.667 68.267l-341.333 341.333c-40.277 40.277-49.869 120.798 0 170.667l273.067 273.067c26.931 26.931 59.699 34.133 88.542 34.133 34.679 0 63.727-15.735 82.125-34.133l341.333-341.333c59.46-59.46 68.267-92.023 68.267-170.667v-136.533c0-155.034-49.766-204.8-204.8-204.8zM716.8 409.6c-56.457 0-102.4-45.943-102.4-102.4s45.943-102.4 102.4-102.4 102.4 45.943 102.4 102.4-45.943 102.4-102.4 102.4z" fill="#949494"></path></g></g></svg>